<?xml version="1.0" encoding="utf-8"?>
<!-- Generator: Adobe Illustrator 16.0.0, SVG Export Plug-In . SVG Version: 6.00 Build 0)  -->
<!DOCTYPE svg PUBLIC "-//W3C//DTD SVG 1.1//EN" "http://www.w3.org/Graphics/SVG/1.1/DTD/svg11.dtd">
<svg version="1.1" id="Laag_1" xmlns="http://www.w3.org/2000/svg" xmlns:xlink="http://www.w3.org/1999/xlink" x="0px" y="0px"
	 width="595.279px" height="841.891px" viewBox="0 0 595.279 841.891" enable-background="new 0 0 595.279 841.891"
	 xml:space="preserve">
<path fill="#F9BE02" d="M201.417,653.554c-9.491,0-17.217,7.727-17.217,17.218s7.726,17.213,17.217,17.213
	c9.492,0,17.213-7.726,17.213-17.213C218.63,661.279,210.909,653.554,201.417,653.554z M201.417,671.788
	c-0.562,0-1.021-0.458-1.021-1.019c0-0.562,0.459-1.021,1.021-1.021c0.56,0,1.019,0.459,1.019,1.021
	C202.435,671.33,201.976,671.788,201.417,671.788z"/>
<path fill="#F9BE02" d="M331.526,123.305h-17.263c-4.813,0-8.72,3.906-8.72,8.72s3.905,8.72,8.72,8.72h17.263
	c21.092,0,38.25,17.159,38.25,38.25v18.871H33.055v-18.871c0-21.091,17.157-38.25,38.25-38.25H279.66
	c4.814,0,8.721-3.906,8.721-8.72s-3.905-8.72-8.721-8.72H71.305c-30.706,0-55.689,24.984-55.689,55.689v483.9
	c0,30.712,24.983,55.689,55.689,55.689h260.221c30.706,0,55.689-24.979,55.689-55.689v-483.9
	C387.216,148.289,362.237,123.305,331.526,123.305z M331.526,701.146H71.305c-21.093,0-38.25-17.158-38.25-38.25V215.305h336.721
	v408.173H59.378c-4.817,0-8.72,3.906-8.72,8.722c0,4.812,3.901,8.72,8.72,8.72h310.397v21.977
	C369.776,683.987,352.617,701.146,331.526,701.146z"/>
<path fill="#F9BE02" d="M141.332,460.357c1.703,1.702,3.934,2.553,6.167,2.553c2.23,0,4.46-0.851,6.163-2.553
	c3.406-3.406,3.406-8.93,0-12.331l-37.469-37.473l37.469-37.468c3.406-3.406,3.406-8.929,0-12.331c-3.4-3.406-8.924-3.406-12.33,0
	L97.695,404.39c-1.635,1.631-2.557,3.852-2.557,6.163c0,2.312,0.922,4.533,2.557,6.167L141.332,460.357z"/>
<path fill="#F9BE02" d="M249.168,460.357c1.703,1.702,3.934,2.553,6.168,2.553c2.229,0,4.46-0.851,6.162-2.553l43.638-43.636
	c3.404-3.406,3.404-8.929,0-12.331l-43.638-43.636c-3.405-3.406-8.924-3.406-12.33,0c-3.405,3.402-3.405,8.924,0,12.331
	l37.474,37.468l-37.474,37.473C245.762,451.429,245.762,456.951,249.168,460.357z"/>
<path fill="#F9BE02" d="M182.283,497.653c0.568,0.107,1.131,0.163,1.689,0.163c4.083,0,7.729-2.879,8.548-7.039l30.854-157.086
	c0.928-4.724-2.151-9.306-6.876-10.237c-4.728-0.922-9.311,2.153-10.235,6.876l-30.856,157.085
	C174.477,492.14,177.556,496.727,182.283,497.653z"/>
</svg>
