<?xml version="1.0" encoding="utf-8"?>
<!-- Generator: Adobe Illustrator 16.0.0, SVG Export Plug-In . SVG Version: 6.00 Build 0)  -->
<!DOCTYPE svg PUBLIC "-//W3C//DTD SVG 1.1//EN" "http://www.w3.org/Graphics/SVG/1.1/DTD/svg11.dtd">
<svg version="1.1" id="Laag_1" xmlns="http://www.w3.org/2000/svg" xmlns:xlink="http://www.w3.org/1999/xlink" x="0px" y="0px"
	 width="595.279px" height="841.891px" viewBox="0 0 595.279 841.891" enable-background="new 0 0 595.279 841.891"
	 xml:space="preserve">
<path fill="#F53240" d="M310.614,252.355v-120.33c0-4.814-3.906-8.72-8.72-8.72H74.018c-4.814,0-8.721,3.906-8.721,8.72v93.072
	c0,4.814,3.905,8.72,8.721,8.72c4.814,0,8.72-3.906,8.72-8.72v-84.352h210.437v110.139H78.528c-33.437,0-60.636,27.2-60.636,60.635
	v218.852c0,33.436,27.199,60.635,60.636,60.635h214.646v110.141H82.738V617.29c0-4.814-3.905-8.721-8.72-8.721
	c-4.815,0-8.721,3.905-8.721,8.721v92.576c0,4.813,3.905,8.72,8.721,8.72h227.876c4.812,0,8.72-3.905,8.72-8.72v-120.33
	c27.091-6.055,47.401-30.274,47.401-59.164V311.519C358.015,282.63,337.704,258.409,310.614,252.355z M340.574,530.371
	c0,23.815-19.374,43.195-43.195,43.195H78.528c-23.816,0-43.195-19.38-43.195-43.195V311.519c0-23.821,19.379-43.195,43.195-43.195
	H297.38c23.821,0,43.195,19.375,43.195,43.195L340.574,530.371L340.574,530.371z"/>
<path fill="#F53240" d="M287.025,293.139h-23.39c-4.818,0-8.721,3.906-8.721,8.72c0,4.819,3.901,8.72,8.721,8.72h23.39
	c6.227,0,11.295,5.068,11.295,11.295v198.143c0,6.228-5.068,11.29-11.295,11.29H88.882c-6.227,0-11.29-5.062-11.29-11.29V321.874
	c0-6.227,5.063-11.295,11.29-11.295h140.246c4.813,0,8.721-3.901,8.721-8.72c0-4.814-3.906-8.72-8.721-8.72H88.882
	c-15.841,0-28.729,12.889-28.729,28.735v198.143c0,15.842,12.89,28.729,28.729,28.729h198.144c15.841,0,28.73-12.889,28.73-28.729
	V321.874C315.76,306.028,302.87,293.139,287.025,293.139z"/>
<path fill="#F53240" d="M148.846,378.14c-3.402-3.406-8.926-3.406-12.331,0l-36.643,36.637c-1.635,1.635-2.553,3.856-2.553,6.168
	s0.918,4.527,2.553,6.164l36.643,36.642c1.702,1.703,3.934,2.553,6.168,2.553c2.229,0,4.464-0.85,6.163-2.553
	c3.405-3.406,3.405-8.929,0-12.331l-30.476-30.474l30.476-30.475C152.252,387.064,152.252,381.542,148.846,378.14z"/>
<path fill="#F53240" d="M227.062,463.75c1.703,1.703,3.933,2.557,6.167,2.557c2.229,0,4.46-0.854,6.163-2.557l36.642-36.638
	c3.402-3.406,3.402-8.929,0-12.335l-36.642-36.637c-3.406-3.406-8.925-3.406-12.33,0c-3.406,3.406-3.406,8.924,0,12.331
	l30.474,30.475l-30.474,30.474C223.656,454.825,223.656,460.344,227.062,463.75z"/>
<path fill="#F53240" d="M190.652,353.315l-25.91,131.898c-0.927,4.723,2.152,9.312,6.876,10.236
	c0.567,0.114,1.135,0.164,1.694,0.164c4.082,0,7.725-2.88,8.542-7.04l25.91-131.898c0.927-4.728-2.148-9.31-6.876-10.237
	C196.16,345.513,191.577,348.588,190.652,353.315z"/>
</svg>
