<?xml version="1.0" encoding="utf-8"?>
<!-- Generator: Adobe Illustrator 16.0.0, SVG Export Plug-In . SVG Version: 6.00 Build 0)  -->
<!DOCTYPE svg PUBLIC "-//W3C//DTD SVG 1.1//EN" "http://www.w3.org/Graphics/SVG/1.1/DTD/svg11.dtd">
<svg version="1.1" id="Capa_1" xmlns="http://www.w3.org/2000/svg" xmlns:xlink="http://www.w3.org/1999/xlink" x="0px" y="0px"
	 width="515.91px" height="728.5px" viewBox="0 0 515.91 728.5" enable-background="new 0 0 515.91 728.5" xml:space="preserve">
<g>
	<g>
		<path fill="#00BCD4" d="M501.16,378.976H14.75c-8.14,0-14.75-6.578-14.75-14.734c0-8.139,6.611-14.75,14.75-14.75h486.41
			c8.139,0,14.75,6.611,14.75,14.75C515.91,372.397,509.299,378.976,501.16,378.976z"/>
	</g>
	<g>
		<path fill="#00BCD4" d="M266.053,622.205c-3.688,0-7.392-1.379-10.249-4.152L4.501,374.822C1.628,372.049,0,368.245,0,364.242
			c0-3.987,1.628-7.824,4.501-10.598l251.303-243.196c5.846-5.665,15.182-5.515,20.846,0.332c5.647,5.864,5.498,15.199-0.349,20.846
			L35.929,364.242l240.373,232.616c5.847,5.664,5.996,14.982,0.349,20.846C273.744,620.693,269.906,622.205,266.053,622.205z"/>
	</g>
</g>
</svg>
