<?xml version="1.0" encoding="utf-8"?>
<!-- Generator: Adobe Illustrator 16.0.0, SVG Export Plug-In . SVG Version: 6.00 Build 0)  -->
<!DOCTYPE svg PUBLIC "-//W3C//DTD SVG 1.1//EN" "http://www.w3.org/Graphics/SVG/1.1/DTD/svg11.dtd">
<svg version="1.1" id="Capa_1" xmlns="http://www.w3.org/2000/svg" xmlns:xlink="http://www.w3.org/1999/xlink" x="0px" y="0px"
	 width="595.279px" height="841.891px" viewBox="0 0 595.279 841.891" enable-background="new 0 0 595.279 841.891"
	 xml:space="preserve">
<g>
	<g>
		<path fill="#7CDBD5" d="M563.495,163.965h-65.519c-4.815,0-8.72,3.904-8.72,8.72c0,4.815,3.904,8.72,8.72,8.72h65.519
			c7.909,0,14.345,6.435,14.345,14.345v55.24c-46.358-0.373-91.233-0.354-136.85,0.071c-4.815,0.044-8.683,3.984-8.639,8.8
			c0.045,4.788,3.939,8.64,8.718,8.639c0.027,0,0.056,0,0.083,0c45.558-0.425,90.379-0.443,136.687-0.07v390.232
			c0,1.004-0.817,1.821-1.823,1.821H133.675c-4.815,0-8.72,3.904-8.72,8.721c0,4.815,3.904,8.72,8.72,8.72h442.342
			c10.622,0,19.263-8.641,19.263-19.262v-462.91C595.28,178.224,581.021,163.965,563.495,163.965z"/>
	</g>
</g>
<g>
	<g>
		<path fill="#7CDBD5" d="M462.38,163.967H31.784C14.259,163.965,0,178.224,0,195.752v462.911c0,10.621,8.641,19.262,19.263,19.262
			h78.815c4.815,0,8.72-3.904,8.72-8.72c0-4.816-3.904-8.72-8.721-8.72H19.263c-1.006,0-1.823-0.817-1.823-1.822V268.477
			c128.484-0.418,258.093-0.412,385.398,0.025c0.011,0,0.021,0,0.03,0c4.802,0,8.702-3.884,8.72-8.689
			c0.017-4.816-3.874-8.734-8.689-8.75c-127.327-0.438-256.956-0.444-385.459-0.026v-55.284c0-7.91,6.436-14.345,14.345-14.345
			H462.38c4.815,0,8.72-3.904,8.72-8.72C471.1,167.871,467.196,163.967,462.38,163.967z"/>
	</g>
</g>
<g>
	<g>
		<path fill="#7CDBD5" d="M397.272,209.124H86.223c-4.816,0-8.72,3.904-8.72,8.72c0,4.815,3.903,8.72,8.72,8.72h311.05
			c4.815,0,8.72-3.904,8.72-8.72C405.992,213.028,402.087,209.124,397.272,209.124z"/>
	</g>
</g>
<g>
	<g>
		<path fill="#7CDBD5" d="M439.444,206.757c-4.816,0-8.721,3.904-8.721,8.72v1.515c0,4.816,3.904,8.72,8.721,8.72
			c4.815,0,8.72-3.904,8.72-8.72v-1.515C448.163,210.661,444.259,206.757,439.444,206.757z"/>
	</g>
</g>
<g>
	<g>
		<path fill="#7CDBD5" d="M474.25,206.757c-4.816,0-8.721,3.904-8.721,8.72v1.515c0,4.816,3.904,8.72,8.721,8.72
			c4.815,0,8.72-3.904,8.72-8.72v-1.515C482.97,210.661,479.066,206.757,474.25,206.757z"/>
	</g>
</g>
<g>
	<g>
		<path fill="#7CDBD5" d="M509.058,206.757c-4.816,0-8.721,3.904-8.721,8.72v1.515c0,4.816,3.904,8.72,8.721,8.72
			c4.815,0,8.72-3.904,8.72-8.72v-1.515C517.778,210.661,513.873,206.757,509.058,206.757z"/>
	</g>
</g>
<g>
	<g>
		<path fill="#7CDBD5" d="M493.149,550.897h-70.535c-4.815,0-8.72,3.904-8.72,8.72c0,4.816,3.904,8.721,8.72,8.721h70.536
			c4.816,0,8.72-3.904,8.72-8.721C501.869,554.802,497.964,550.897,493.149,550.897z"/>
	</g>
</g>
<g>
	<g>
		<path fill="#7CDBD5" d="M493.149,578.761h-25.051c-4.815,0-8.72,3.904-8.72,8.72s3.904,8.72,8.72,8.72h25.051
			c4.815,0,8.72-3.904,8.72-8.72S497.964,578.761,493.149,578.761z"/>
	</g>
</g>
<g>
	<g>
		<path fill="#7CDBD5" d="M139.513,450.988l47.759-47.759c3.405-3.405,3.405-8.927,0-12.331c-3.405-3.405-8.927-3.405-12.331,0
			l-53.925,53.924c-1.636,1.635-2.554,3.854-2.554,6.166s0.918,4.53,2.554,6.165l53.925,53.925c1.702,1.703,3.934,2.554,6.165,2.554
			s4.464-0.851,6.166-2.554c3.405-3.406,3.405-8.928,0-12.331L139.513,450.988z"/>
	</g>
</g>
<g>
	<g>
		<path fill="#7CDBD5" d="M474.264,444.822l-53.924-53.924c-3.406-3.405-8.928-3.405-12.331,0c-3.406,3.405-3.406,8.927,0,12.331
			l47.758,47.759l-47.758,47.758c-3.406,3.406-3.406,8.928,0,12.332c1.702,1.702,3.934,2.554,6.165,2.554s4.464-0.851,6.166-2.554
			l53.924-53.925c1.636-1.635,2.555-3.853,2.555-6.165S475.9,446.457,474.264,444.822z"/>
	</g>
</g>
<g>
	<g>
		<path fill="#7CDBD5" d="M284.734,396.536c-4.247-2.268-9.531-0.664-11.8,3.584l-53.775,100.685
			c-2.269,4.247-0.664,9.53,3.585,11.8c1.308,0.699,2.713,1.03,4.101,1.03c3.114,0,6.128-1.675,7.698-4.613l53.775-100.685
			C290.586,404.089,288.982,398.806,284.734,396.536z"/>
	</g>
</g>
<g>
	<g>
		<path fill="#7CDBD5" d="M294.212,493.635c-4.815,0-8.72,3.904-8.72,8.72v1.223c0,4.816,3.904,8.72,8.72,8.72
			c4.816,0,8.72-3.903,8.72-8.72v-1.223C302.934,497.539,299.03,493.635,294.212,493.635z"/>
	</g>
</g>
<g>
	<g>
		<path fill="#7CDBD5" d="M333.711,493.636c-4.815,0-8.72,3.903-8.72,8.72v1.223c0,4.816,3.904,8.721,8.72,8.721
			s8.72-3.904,8.72-8.721v-1.223C342.431,497.54,338.527,493.636,333.711,493.636z"/>
	</g>
</g>
<g>
	<g>
		<path fill="#7CDBD5" d="M373.211,493.636c-4.815,0-8.72,3.903-8.72,8.72v1.223c0,4.816,3.904,8.721,8.72,8.721
			c4.816,0,8.72-3.904,8.72-8.721v-1.223C381.931,497.54,378.028,493.636,373.211,493.636z"/>
	</g>
</g>
</svg>
